<svg width="19" height="20" viewBox="0 0 19 20" fill="none" xmlns="http://www.w3.org/2000/svg">
<g filter="url(#filter0_d_2_23)">
<path d="M11.8108 1.59459C11.5272 1.59459 11.2973 1.8245 11.2973 2.1081C11.2973 2.39171 11.5272 2.62162 11.8108 2.62162L12.6251 2.62162L10.4207 4.82608C10.2201 5.02661 10.2201 5.35175 10.4207 5.55229C10.6212 5.75283 10.9464 5.75283 11.1469 5.55229L13.3514 3.34783L13.3514 4.16216C13.3514 4.44577 13.5813 4.67567 13.8649 4.67567C14.1485 4.67567 14.3784 4.44576 14.3784 4.16216L14.3784 2.1081C14.3784 1.8245 14.1485 1.59459 13.8649 1.59459H11.8108ZM5.13514 10.1116L5.13514 9.29729C5.13514 9.01368 4.90523 8.78378 4.62162 8.78378C4.33802 8.78378 4.10811 9.01368 4.10811 9.29729L4.10811 11.3513C4.10811 11.635 4.33802 11.8649 4.62162 11.8649H6.67568C6.95928 11.8649 7.18919 11.635 7.18919 11.3513C7.18919 11.0677 6.95928 10.8378 6.67568 10.8378H5.86135L8.06581 8.63337C8.26635 8.43283 8.26635 8.1077 8.06581 7.90716C7.86527 7.70662 7.54013 7.70662 7.33959 7.90716L5.13514 10.1116Z" fill="#0D0D0D"/>
</g>
<defs>
<filter id="filter0_d_2_23" x="-0.918915" y="0.567566" width="20.3243" height="20.3243" filterUnits="userSpaceOnUse" color-interpolation-filters="sRGB">
<feFlood flood-opacity="0" result="BackgroundImageFix"/>
<feColorMatrix in="SourceAlpha" type="matrix" values="0 0 0 0 0 0 0 0 0 0 0 0 0 0 0 0 0 0 127 0" result="hardAlpha"/>
<feOffset dy="4"/>
<feGaussianBlur stdDeviation="2"/>
<feComposite in2="hardAlpha" operator="out"/>
<feColorMatrix type="matrix" values="0 0 0 0 0 0 0 0 0 0 0 0 0 0 0 0 0 0 0.25 0"/>
<feBlend mode="normal" in2="BackgroundImageFix" result="effect1_dropShadow_2_23"/>
<feBlend mode="normal" in="SourceGraphic" in2="effect1_dropShadow_2_23" result="shape"/>
</filter>
</defs>
</svg>
