<svg width="28" height="28" viewBox="0 0 28 28" fill="none" xmlns="http://www.w3.org/2000/svg">
<g filter="url(#filter0_d_6_101)">
<path d="M4 0H16C20.4183 0 24 3.58172 24 8V20H12C7.58172 20 4 16.4183 4 12V0Z" fill="white"/>
<path d="M4.5 0.5H16C20.1421 0.5 23.5 3.85786 23.5 8V19.5H12C7.85786 19.5 4.5 16.1421 4.5 12V0.5Z" stroke="white"/>
</g>
<path d="M10.9091 13.5573C11.9277 14.5754 13.3089 15.1475 14.7491 15.1478C17.7284 15.1478 20.1802 12.6961 20.1802 9.71675C20.1802 6.73744 17.7289 4.28571 14.7491 4.28571C11.7693 4.28571 9.31808 6.73744 9.31808 9.71675" stroke="#1A1E27" stroke-width="1.5" stroke-miterlimit="10"/>
<g filter="url(#filter1_d_6_101)">
<path d="M6.85715 6.97852L8.89665 9.83566L12.5714 8.24994" stroke="#1A1E27" stroke-width="1.5" stroke-miterlimit="10" shape-rendering="crispEdges"/>
</g>
<defs>
<filter id="filter0_d_6_101" x="0" y="0" width="28" height="28" filterUnits="userSpaceOnUse" color-interpolation-filters="sRGB">
<feFlood flood-opacity="0" result="BackgroundImageFix"/>
<feColorMatrix in="SourceAlpha" type="matrix" values="0 0 0 0 0 0 0 0 0 0 0 0 0 0 0 0 0 0 127 0" result="hardAlpha"/>
<feOffset dy="4"/>
<feGaussianBlur stdDeviation="2"/>
<feComposite in2="hardAlpha" operator="out"/>
<feColorMatrix type="matrix" values="0 0 0 0 0 0 0 0 0 0 0 0 0 0 0 0 0 0 0.25 0"/>
<feBlend mode="normal" in2="BackgroundImageFix" result="effect1_dropShadow_6_101"/>
<feBlend mode="normal" in="SourceGraphic" in2="effect1_dropShadow_6_101" result="shape"/>
</filter>
<filter id="filter1_d_6_101" x="2.2467" y="6.54277" width="14.6219" height="12.2214" filterUnits="userSpaceOnUse" color-interpolation-filters="sRGB">
<feFlood flood-opacity="0" result="BackgroundImageFix"/>
<feColorMatrix in="SourceAlpha" type="matrix" values="0 0 0 0 0 0 0 0 0 0 0 0 0 0 0 0 0 0 127 0" result="hardAlpha"/>
<feOffset dy="4"/>
<feGaussianBlur stdDeviation="2"/>
<feComposite in2="hardAlpha" operator="out"/>
<feColorMatrix type="matrix" values="0 0 0 0 0 0 0 0 0 0 0 0 0 0 0 0 0 0 0.25 0"/>
<feBlend mode="normal" in2="BackgroundImageFix" result="effect1_dropShadow_6_101"/>
<feBlend mode="normal" in="SourceGraphic" in2="effect1_dropShadow_6_101" result="shape"/>
</filter>
</defs>
</svg>
