<svg width="62" height="49" viewBox="0 0 62 49" fill="none" xmlns="http://www.w3.org/2000/svg">
<g clip-path="url(#clip0_9_2)">
<g filter="url(#filter0_d_9_2)">
<path d="M39.9706 17.418C38.9748 16.6204 37.509 16.7608 36.7011 17.7435C35.8868 18.7235 36.0321 20.1696 37.028 20.9726C38.1203 21.8586 38.75 23.141 38.75 24.4139C38.75 25.77 38.1203 27.0543 37.0247 27.9386C36.0288 28.7421 35.8835 30.1876 36.6977 31.1676C37.1549 31.7233 37.8234 32.01 38.4957 32.01C39.0134 32.01 39.5371 31.8398 39.9672 31.4933C42.1503 29.8115 43.4 27.2371 43.4 24.4139C43.4 21.5906 42.1503 19.1789 39.9706 17.418ZM45.8316 10.3551C44.8415 9.55749 43.3768 9.69492 42.5591 10.6747C41.7448 11.6547 41.8901 13.1008 42.8831 13.9037C46.1706 16.4705 48.05 20.4135 48.05 24.4139C48.05 28.4143 46.1667 32.2711 42.8856 35.0082C41.8926 35.8117 41.7473 37.2572 42.5616 38.2372C43.0218 38.7899 43.6873 39.0766 44.3596 39.0766C44.8803 39.0766 45.4011 38.9064 45.8341 38.5569C50.2006 35.1135 52.7 29.9551 52.7 24.4139C52.7 18.8727 50.2006 13.877 45.8316 10.3551ZM51.77 3.19648C50.7799 2.39889 49.3152 2.53929 48.4976 3.51613C47.6832 4.49613 47.8285 5.94221 48.8215 6.74516C54.2403 11.1303 57.35 17.5998 57.35 24.4139C57.35 31.2279 54.2413 37.7836 48.8192 42.1668C47.8262 42.9703 47.6809 44.4158 48.4952 45.3958C48.9509 46.0332 49.6194 46.3203 50.2975 46.3203C50.8182 46.3203 51.3389 46.15 51.7719 45.8005C58.2703 40.5398 62 32.7783 62 24.4139C62 16.0494 58.2703 8.45441 51.77 3.19648ZM29.1788 3.3477C28.0647 2.85186 26.7559 3.05331 25.8433 3.85396L12.7681 15.3221H4.65C2.08184 15.3221 0 17.3778 0 19.912V29.0918C0 31.6261 2.08184 33.6818 4.65 33.6818H12.772L25.8404 45.147C26.4178 45.6504 27.1541 45.9184 27.9 45.9184C28.3299 45.9184 28.7679 45.8292 29.1749 45.647C30.2928 45.1527 31 44.0617 31 42.8654V6.13648C31 4.9335 30.2928 3.84057 29.1788 3.3477Z" fill="#6C6C6C"/>
</g>
</g>
<defs>
<filter id="filter0_d_9_2" x="-4" y="2.67974" width="70" height="51.6406" filterUnits="userSpaceOnUse" color-interpolation-filters="sRGB">
<feFlood flood-opacity="0" result="BackgroundImageFix"/>
<feColorMatrix in="SourceAlpha" type="matrix" values="0 0 0 0 0 0 0 0 0 0 0 0 0 0 0 0 0 0 127 0" result="hardAlpha"/>
<feOffset dy="4"/>
<feGaussianBlur stdDeviation="2"/>
<feComposite in2="hardAlpha" operator="out"/>
<feColorMatrix type="matrix" values="0 0 0 0 0 0 0 0 0 0 0 0 0 0 0 0 0 0 0.25 0"/>
<feBlend mode="normal" in2="BackgroundImageFix" result="effect1_dropShadow_9_2"/>
<feBlend mode="normal" in="SourceGraphic" in2="effect1_dropShadow_9_2" result="shape"/>
</filter>
<clipPath id="clip0_9_2">
<rect width="62" height="49" fill="white"/>
</clipPath>
</defs>
</svg>
